<svg xmlns="http://www.w3.org/2000/svg" viewBox="0 0 32 32" width="32" height="32">
  <!-- Background circle -->
  <circle cx="16" cy="16" r="15" fill="#2563eb" stroke="#1e40af" stroke-width="2"/>
  
  <!-- Code brackets -->
  <path d="M8 10 L5 13 L5 19 L8 22" stroke="#ffffff" stroke-width="2" fill="none" stroke-linecap="round" stroke-linejoin="round"/>
  <path d="M24 10 L27 13 L27 19 L24 22" stroke="#ffffff" stroke-width="2" fill="none" stroke-linecap="round" stroke-linejoin="round"/>
  
  <!-- Judge hammer/gavel -->
  <rect x="14" y="12" width="4" height="8" rx="2" fill="#fbbf24"/>
  <ellipse cx="16" cy="11" rx="3" ry="2" fill="#f59e0b"/>
  
  <!-- Code lines inside brackets -->
  <line x1="10" y1="14" x2="13" y2="14" stroke="#60a5fa" stroke-width="1.5" stroke-linecap="round"/>
  <line x1="10" y1="16" x2="12" y2="16" stroke="#60a5fa" stroke-width="1.5" stroke-linecap="round"/>
  <line x1="10" y1="18" x2="13" y2="18" stroke="#60a5fa" stroke-width="1.5" stroke-linecap="round"/>
  
  <line x1="19" y1="14" x2="22" y2="14" stroke="#60a5fa" stroke-width="1.5" stroke-linecap="round"/>
  <line x1="20" y1="16" x2="22" y2="16" stroke="#60a5fa" stroke-width="1.5" stroke-linecap="round"/>
  <line x1="19" y1="18" x2="22" y2="18" stroke="#60a5fa" stroke-width="1.5" stroke-linecap="round"/>
  
  <!-- Small accent dots -->
  <circle cx="11" cy="25" r="1" fill="#34d399"/>
  <circle cx="21" cy="25" r="1" fill="#f87171"/>
  <circle cx="16" cy="26" r="1" fill="#fbbf24"/>
</svg>